<?xml version="1.0" encoding="UTF-8"?>
<!DOCTYPE svg PUBLIC "-//W3C//DTD SVG 1.1//EN" "http://www.w3.org/Graphics/SVG/1.1/DTD/svg11.dtd">
<svg xmlns="http://www.w3.org/2000/svg" version="1.1" width="371px" height="125px" style="shape-rendering:geometricPrecision; text-rendering:geometricPrecision; image-rendering:optimizeQuality; fill-rule:evenodd; clip-rule:evenodd" xmlns:xlink="http://www.w3.org/1999/xlink">
<g><path style="opacity:1" fill="#f05843" d="M -0.5,-0.5 C 123.167,-0.5 246.833,-0.5 370.5,-0.5C 370.5,41.1667 370.5,82.8333 370.5,124.5C 246.833,124.5 123.167,124.5 -0.5,124.5C -0.5,82.8333 -0.5,41.1667 -0.5,-0.5 Z"/></g>
<g><path style="opacity:1" fill="#f18779" d="M 21.5,21.5 C 35.9942,20.3391 50.6609,20.1724 65.5,21C 66.7375,21.2321 67.7375,21.7321 68.5,22.5C 52.8619,21.5627 37.1952,21.2294 21.5,21.5 Z"/></g>
<g><path style="opacity:1" fill="#f1887a" d="M 155.5,21.5 C 146.983,21.1739 138.65,21.5073 130.5,22.5C 130.167,22.5 129.833,22.5 129.5,22.5C 133.445,21.1745 137.778,20.5079 142.5,20.5C 147.013,20.5009 151.347,20.8343 155.5,21.5 Z"/></g>
<g><path style="opacity:1" fill="#f18879" d="M 231.5,21.5 C 237.157,20.8338 242.99,20.5005 249,20.5C 255.207,20.5042 261.04,21.1709 266.5,22.5C 266.167,22.5 265.833,22.5 265.5,22.5C 254.679,21.5054 243.679,21.1721 232.5,21.5C 232.167,21.5 231.833,21.5 231.5,21.5 Z"/></g>
<g><path style="opacity:1" fill="#e8ccc9" d="M 130.5,22.5 C 138.65,21.5073 146.983,21.1739 155.5,21.5C 156.434,22.5676 156.768,23.901 156.5,25.5C 155.733,24.828 155.066,23.9947 154.5,23C 146.507,22.5003 138.507,22.3336 130.5,22.5 Z"/></g>
<g><path style="opacity:1" fill="#e6c8c4" d="M 222.5,21.5 C 222.5,21.8333 222.5,22.1667 222.5,22.5C 212.167,22.5 201.833,22.5 191.5,22.5C 191.5,27.5 191.5,32.5 191.5,37.5C 194.059,37.1984 196.393,37.5318 198.5,38.5C 195.833,38.5 193.167,38.5 190.5,38.5C 190.5,32.8333 190.5,27.1667 190.5,21.5C 201.167,21.5 211.833,21.5 222.5,21.5 Z"/></g>
<g><path style="opacity:1" fill="#e6d2d0" d="M 232.5,22.5 C 232.5,22.1667 232.5,21.8333 232.5,21.5C 243.679,21.1721 254.679,21.5054 265.5,22.5C 265.821,27.6946 265.487,32.6946 264.5,37.5C 264.5,32.5 264.5,27.5 264.5,22.5C 253.833,22.5 243.167,22.5 232.5,22.5 Z"/></g>
<g><path style="opacity:1" fill="#e7c2bd" d="M 306.5,37.5 C 306.167,37.5 305.833,37.5 305.5,37.5C 305.5,32.5 305.5,27.5 305.5,22.5C 295.167,22.5 284.833,22.5 274.5,22.5C 274.5,27.5 274.5,32.5 274.5,37.5C 276.833,37.5 279.167,37.5 281.5,37.5C 281.5,37.8333 281.5,38.1667 281.5,38.5C 278.552,38.7771 275.719,38.4438 273,37.5C 272.501,32.1771 272.334,26.8437 272.5,21.5C 283.833,21.5 295.167,21.5 306.5,21.5C 306.5,26.8333 306.5,32.1667 306.5,37.5 Z"/></g>
<g><path style="opacity:1" fill="#e1cbc8" d="M 317.5,21.5 C 328.5,21.5 339.5,21.5 350.5,21.5C 350.5,26.8333 350.5,32.1667 350.5,37.5C 347.833,37.5 345.167,37.5 342.5,37.5C 344.607,36.5318 346.941,36.1984 349.5,36.5C 349.5,31.8333 349.5,27.1667 349.5,22.5C 339.167,22.5 328.833,22.5 318.5,22.5C 318.5,27.5 318.5,32.5 318.5,37.5C 321.059,37.1984 323.393,37.5318 325.5,38.5C 322.833,38.5 320.167,38.5 317.5,38.5C 317.5,32.8333 317.5,27.1667 317.5,21.5 Z"/></g>
<g><path style="opacity:1" fill="#faf6f6" d="M 21.5,21.5 C 37.1952,21.2294 52.8619,21.5627 68.5,22.5C 82.9719,29.1128 88.6386,40.1128 85.5,55.5C 84.2554,59.5566 82.2554,63.2233 79.5,66.5C 78.3054,66.8656 77.6387,67.699 77.5,69C 79.6328,72.7657 81.6328,76.599 83.5,80.5C 83.427,82.0269 84.0937,83.0269 85.5,83.5C 86.2485,84.531 86.9152,85.6976 87.5,87C 89.8098,87.4966 92.1432,87.6633 94.5,87.5C 94.5,92.8333 94.5,98.1667 94.5,103.5C 83.8333,103.5 73.1667,103.5 62.5,103.5C 62.5,98.1667 62.5,92.8333 62.5,87.5C 69.2197,88.6163 70.2197,86.9496 65.5,82.5C 65.573,80.9731 64.9063,79.9731 63.5,79.5C 62.9332,77.9705 62.2666,76.4705 61.5,75C 56.5111,74.5007 51.5111,74.3341 46.5,74.5C 46.5,78.8333 46.5,83.1667 46.5,87.5C 48.6074,88.4682 50.9407,88.8016 53.5,88.5C 53.5,93.5 53.5,98.5 53.5,103.5C 42.8333,103.5 32.1667,103.5 21.5,103.5C 21.5,98.1667 21.5,92.8333 21.5,87.5C 24.1667,87.5 26.8333,87.5 29.5,87.5C 30.4965,71.0084 30.8298,54.3417 30.5,37.5C 27.5,37.5 24.5,37.5 21.5,37.5C 21.5,32.1667 21.5,26.8333 21.5,21.5 Z"/></g>
<g><path style="opacity:1" fill="#fbf6f6" d="M 129.5,22.5 C 129.833,22.5 130.167,22.5 130.5,22.5C 138.507,22.3336 146.507,22.5003 154.5,23C 155.066,23.9947 155.733,24.828 156.5,25.5C 157.91,30.8502 159.577,36.1835 161.5,41.5C 162.388,46.0726 163.721,50.406 165.5,54.5C 168.833,65.5 172.167,76.5 175.5,87.5C 177.607,88.4682 179.941,88.8016 182.5,88.5C 182.5,93.5 182.5,98.5 182.5,103.5C 171.833,103.5 161.167,103.5 150.5,103.5C 150.5,98.1667 150.5,92.8333 150.5,87.5C 152.833,87.5 155.167,87.5 157.5,87.5C 157.567,86.0413 157.234,84.7079 156.5,83.5C 156.768,81.901 156.434,80.5676 155.5,79.5C 146.991,78.1786 138.325,78.1786 129.5,79.5C 128.691,81.0709 128.357,82.7376 128.5,84.5C 127.566,85.5676 127.232,86.901 127.5,88.5C 129.833,88.5 132.167,88.5 134.5,88.5C 134.5,93.5 134.5,98.5 134.5,103.5C 123.833,103.5 113.167,103.5 102.5,103.5C 102.5,98.1667 102.5,92.8333 102.5,87.5C 104.833,87.5 107.167,87.5 109.5,87.5C 110.117,87.3893 110.617,87.056 111,86.5C 111.838,83.1484 112.671,79.8151 113.5,76.5C 115.423,71.1835 117.09,65.8502 118.5,60.5C 120.31,57.855 121.31,54.855 121.5,51.5C 122.008,47.2641 123.008,43.2641 124.5,39.5C 126.279,35.406 127.612,31.0726 128.5,26.5C 128.232,24.901 128.566,23.5676 129.5,22.5 Z"/></g>
<g><path style="opacity:1" fill="#fbf6f6" d="M 222.5,22.5 C 222.5,27.5 222.5,32.5 222.5,37.5C 219.941,37.1984 217.607,37.5318 215.5,38.5C 214.51,44.6446 214.177,50.9779 214.5,57.5C 215.791,57.7373 216.791,57.404 217.5,56.5C 217.5,56.1667 217.5,55.8333 217.5,55.5C 222.86,50.4721 228.193,45.4721 233.5,40.5C 235.048,40.1788 235.715,39.1788 235.5,37.5C 234.5,37.5 233.5,37.5 232.5,37.5C 232.5,32.5 232.5,27.5 232.5,22.5C 243.167,22.5 253.833,22.5 264.5,22.5C 264.5,27.5 264.5,32.5 264.5,37.5C 262.585,37.2155 260.919,37.5489 259.5,38.5C 253.202,44.2972 247.035,50.2972 241,56.5C 241.22,58.9631 242.054,61.2965 243.5,63.5C 243.427,65.0269 244.094,66.0269 245.5,66.5C 249.674,72.9635 253.674,79.6302 257.5,86.5C 260.086,87.48 262.753,87.8134 265.5,87.5C 265.5,92.8333 265.5,98.1667 265.5,103.5C 254.833,103.5 244.167,103.5 233.5,103.5C 233.5,98.5 233.5,93.5 233.5,88.5C 235.415,88.7845 237.081,88.4511 238.5,87.5C 234.817,81.4593 231.15,75.4593 227.5,69.5C 223.515,72.9844 219.682,76.651 216,80.5C 215.503,82.8098 215.337,85.1432 215.5,87.5C 218.167,87.5 220.833,87.5 223.5,87.5C 223.5,92.8333 223.5,98.1667 223.5,103.5C 212.833,103.5 202.167,103.5 191.5,103.5C 191.5,98.5 191.5,93.5 191.5,88.5C 194.059,88.8016 196.393,88.4682 198.5,87.5C 198.5,71.1667 198.5,54.8333 198.5,38.5C 196.393,37.5318 194.059,37.1984 191.5,37.5C 191.5,32.5 191.5,27.5 191.5,22.5C 201.833,22.5 212.167,22.5 222.5,22.5 Z"/></g>
<g><path style="opacity:1" fill="#ca877e" d="M 222.5,21.5 C 223.489,26.9753 223.822,32.642 223.5,38.5C 221.167,38.5 218.833,38.5 216.5,38.5C 216.167,38.5 215.833,38.5 215.5,38.5C 217.607,37.5318 219.941,37.1984 222.5,37.5C 222.5,32.5 222.5,27.5 222.5,22.5C 222.5,22.1667 222.5,21.8333 222.5,21.5 Z"/></g>
<g><path style="opacity:1" fill="#fcf9f9" d="M 305.5,37.5 C 302.833,37.5 300.167,37.5 297.5,37.5C 297.171,52.3428 297.504,67.0095 298.5,81.5C 299.203,83.7157 300.536,85.549 302.5,87C 308.5,87.6667 314.5,87.6667 320.5,87C 323,85.8333 324.833,84 326,81.5C 326.827,66.9941 326.661,52.6607 325.5,38.5C 323.393,37.5318 321.059,37.1984 318.5,37.5C 318.5,32.5 318.5,27.5 318.5,22.5C 328.833,22.5 339.167,22.5 349.5,22.5C 349.5,27.1667 349.5,31.8333 349.5,36.5C 346.941,36.1984 344.607,36.5318 342.5,37.5C 342.5,52.1667 342.5,66.8333 342.5,81.5C 341.274,88.7126 337.941,94.7126 332.5,99.5C 330.973,99.427 329.973,100.094 329.5,101.5C 327.167,102.167 324.833,102.833 322.5,103.5C 314.112,103.773 305.779,103.44 297.5,102.5C 291.618,100.615 287.285,96.9481 284.5,91.5C 282.987,73.396 281.987,55.396 281.5,37.5C 279.167,37.5 276.833,37.5 274.5,37.5C 274.5,32.5 274.5,27.5 274.5,22.5C 284.833,22.5 295.167,22.5 305.5,22.5C 305.5,27.5 305.5,32.5 305.5,37.5 Z"/></g>
<g><path style="opacity:1" fill="#e48e81" d="M 317.5,21.5 C 328.654,20.5052 339.988,20.1719 351.5,20.5C 351.5,26.5 351.5,32.5 351.5,38.5C 348.833,38.5 346.167,38.5 343.5,38.5C 343.829,53.0097 343.496,67.3431 342.5,81.5C 342.5,66.8333 342.5,52.1667 342.5,37.5C 345.167,37.5 347.833,37.5 350.5,37.5C 350.5,32.1667 350.5,26.8333 350.5,21.5C 339.5,21.5 328.5,21.5 317.5,21.5 Z"/></g>
<g><path style="opacity:1" fill="#dfa299" d="M 231.5,21.5 C 231.833,21.5 232.167,21.5 232.5,21.5C 232.5,21.8333 232.5,22.1667 232.5,22.5C 232.5,27.5 232.5,32.5 232.5,37.5C 233.5,37.5 234.5,37.5 235.5,37.5C 235.715,39.1788 235.048,40.1788 233.5,40.5C 234.66,38.7973 233.993,38.1307 231.5,38.5C 231.5,32.8333 231.5,27.1667 231.5,21.5 Z"/></g>
<g><path style="opacity:1" fill="#d79991" d="M 265.5,22.5 C 265.833,22.5 266.167,22.5 266.5,22.5C 266.5,27.8333 266.5,33.1667 266.5,38.5C 264.167,38.5 261.833,38.5 259.5,38.5C 260.919,37.5489 262.585,37.2155 264.5,37.5C 265.487,32.6946 265.821,27.6946 265.5,22.5 Z"/></g>
<g><path style="opacity:1" fill="#ef8d7f" d="M 198.5,28.5 C 203.875,28.1718 209.208,28.5052 214.5,29.5C 212.369,30.1687 210.369,30.8354 208.5,31.5C 208.167,31.5 207.833,31.5 207.5,31.5C 207.167,28.8333 206.833,28.8333 206.5,31.5C 206.167,31.5 205.833,31.5 205.5,31.5C 202.841,31.0826 200.508,30.0826 198.5,28.5 Z"/></g>
<g><path style="opacity:1" fill="#ec8a7c" d="M 29.5,28.5 C 41.1714,28.3335 52.8381,28.5001 64.5,29C 70.5693,31.0102 74.9026,34.8435 77.5,40.5C 77.1667,40.5 76.8333,40.5 76.5,40.5C 73.3561,35.205 68.6895,32.0383 62.5,31C 54.6554,30.1777 46.9887,30.3443 39.5,31.5C 39.1667,31.5 38.8333,31.5 38.5,31.5C 38.1667,28.8333 37.8333,28.8333 37.5,31.5C 34.3823,31.2325 31.7156,30.2325 29.5,28.5 Z"/></g>
<g><path style="opacity:1" fill="#e3bbb5" d="M 198.5,28.5 C 200.508,30.0826 202.841,31.0826 205.5,31.5C 202.833,31.5 200.167,31.5 197.5,31.5C 197.263,30.209 197.596,29.209 198.5,28.5 Z"/></g>
<g><path style="opacity:1" fill="#e5bcb6" d="M 239.5,28.5 C 243.762,30.1276 248.429,31.1276 253.5,31.5C 253.376,32.1067 253.043,32.44 252.5,32.5C 248.03,31.5139 243.363,31.1805 238.5,31.5C 238.263,30.209 238.596,29.209 239.5,28.5 Z"/></g>
<g><path style="opacity:1" fill="#dec8c5" d="M 29.5,28.5 C 31.7156,30.2325 34.3823,31.2325 37.5,31.5C 37.6666,52.5026 37.5,73.5026 37,94.5C 34.595,95.2744 32.095,95.7744 29.5,96C 35.1569,96.4994 40.8236,96.6661 46.5,96.5C 40.69,97.4896 34.69,97.8229 28.5,97.5C 28.5,96.1667 28.5,94.8333 28.5,93.5C 30.8333,93.5 33.1667,93.5 35.5,93.5C 35.5,72.8333 35.5,52.1667 35.5,31.5C 33.1667,31.5 30.8333,31.5 28.5,31.5C 28.2627,30.209 28.596,29.209 29.5,28.5 Z"/></g>
<g><path style="opacity:1" fill="#f9f1f0" d="M 76.5,40.5 C 77.7694,45.4859 77.7694,50.4859 76.5,55.5C 74.4167,57.4243 72.4167,59.591 70.5,62C 68.5932,63.122 66.5932,63.9553 64.5,64.5C 56.1667,64.5 47.8333,64.5 39.5,64.5C 39.5,53.5 39.5,42.5 39.5,31.5C 46.9887,30.3443 54.6554,30.1777 62.5,31C 68.6895,32.0383 73.3561,35.205 76.5,40.5 Z"/></g>
<g><path style="opacity:1" fill="#e98c7e" d="M 166.5,83.5 C 165.596,84.209 165.263,85.209 165.5,86.5C 164.034,82.3258 162.7,77.9924 161.5,73.5C 148.851,72.5009 136.184,72.1676 123.5,72.5C 123.046,78.9981 121.38,84.9981 118.5,90.5C 118.672,89.5084 118.338,88.8417 117.5,88.5C 123.617,68.6545 129.617,48.8211 135.5,29C 140.533,28.1711 145.533,28.3377 150.5,29.5C 155.87,47.5508 161.204,65.5508 166.5,83.5 Z"/></g>
<g><path style="opacity:1" fill="#faf5f4" d="M 159.5,69.5 C 148.116,70.1436 137.116,69.477 126.5,67.5C 129.676,55.1293 133.009,42.796 136.5,30.5C 140.555,30.1758 144.555,30.5091 148.5,31.5C 152.784,43.9656 156.451,56.6323 159.5,69.5 Z"/></g>
<g><path style="opacity:1" fill="#f38575" d="M 128.5,26.5 C 127.612,31.0726 126.279,35.406 124.5,39.5C 125.013,35.447 125.846,31.447 127,27.5C 127.383,26.944 127.883,26.6107 128.5,26.5 Z"/></g>
<g><path style="opacity:1" fill="#f8c6bd" d="M 38.5,31.5 C 38.8333,31.5 39.1667,31.5 39.5,31.5C 39.5,42.5 39.5,53.5 39.5,64.5C 47.8333,64.5 56.1667,64.5 64.5,64.5C 56.0161,65.493 47.3494,65.8264 38.5,65.5C 38.5,54.1667 38.5,42.8333 38.5,31.5 Z"/></g>
<g><path style="opacity:1" fill="#f5c6bf" d="M 205.5,31.5 C 205.833,31.5 206.167,31.5 206.5,31.5C 206.5,52.8333 206.5,74.1667 206.5,95.5C 203.615,95.1936 200.948,95.5269 198.5,96.5C 197.957,96.44 197.624,96.1067 197.5,95.5C 200.086,94.52 202.753,94.1866 205.5,94.5C 205.5,73.5 205.5,52.5 205.5,31.5 Z"/></g>
<g><path style="opacity:1" fill="#f86e5a" d="M 207.5,31.5 C 207.5,45.8333 207.5,60.1667 207.5,74.5C 208.167,75.1667 208.833,75.8333 209.5,76.5C 208.883,76.6107 208.383,76.944 208,77.5C 207.182,83.3487 207.348,89.0154 208.5,94.5C 210.631,95.3138 212.964,95.8138 215.5,96C 209.843,96.4994 204.176,96.6661 198.5,96.5C 200.948,95.5269 203.615,95.1936 206.5,95.5C 206.5,74.1667 206.5,52.8333 206.5,31.5C 206.833,28.8333 207.167,28.8333 207.5,31.5 Z"/></g>
<g><path style="opacity:1" fill="#e0aaa2" d="M 207.5,31.5 C 207.833,31.5 208.167,31.5 208.5,31.5C 208.171,45.6766 208.504,59.6766 209.5,73.5C 209.158,74.3382 208.492,74.6716 207.5,74.5C 207.5,60.1667 207.5,45.8333 207.5,31.5 Z"/></g>
<g><path style="opacity:1" fill="#e5dbd9" d="M 342.5,28.5 C 343.404,29.209 343.737,30.209 343.5,31.5C 341.167,31.5 338.833,31.5 336.5,31.5C 336.83,48.3417 336.497,65.0084 335.5,81.5C 335.5,64.5 335.5,47.5 335.5,30.5C 338.388,31.0102 340.721,30.3435 342.5,28.5 Z"/></g>
<g><path style="opacity:1" fill="#e5beb8" d="M 21.5,37.5 C 24.5,37.5 27.5,37.5 30.5,37.5C 30.8298,54.3417 30.4965,71.0084 29.5,87.5C 29.5,71.1667 29.5,54.8333 29.5,38.5C 26.6146,38.8064 23.9479,38.4731 21.5,37.5 Z"/></g>
<g><path style="opacity:1" fill="#f2c3bc" d="M 215.5,38.5 C 214.88,44.9262 215.547,50.9262 217.5,56.5C 216.791,57.404 215.791,57.7373 214.5,57.5C 214.177,50.9779 214.51,44.6446 215.5,38.5 Z"/></g>
<g><path style="opacity:1" fill="#e7d8d6" d="M 281.5,37.5 C 281.987,55.396 282.987,73.396 284.5,91.5C 283.531,89.337 282.698,87.0037 282,84.5C 281.5,69.1703 281.333,53.837 281.5,38.5C 281.5,38.1667 281.5,37.8333 281.5,37.5 Z"/></g>
<g><path style="opacity:1" fill="#ed7d6d" d="M 215.5,38.5 C 215.833,38.5 216.167,38.5 216.5,38.5C 216.178,44.358 216.511,50.0247 217.5,55.5C 217.5,55.8333 217.5,56.1667 217.5,56.5C 215.547,50.9262 214.88,44.9262 215.5,38.5 Z"/></g>
<g><path style="opacity:1" fill="#f15a45" d="M 65.5,56.5 C 59.2252,57.418 52.8918,57.7513 46.5,57.5C 46.5,51.1667 46.5,44.8333 46.5,38.5C 52.5092,38.3338 58.5092,38.5005 64.5,39C 70.7646,44.5345 71.0979,50.3679 65.5,56.5 Z"/></g>
<g><path style="opacity:1" fill="#f87460" d="M 76.5,40.5 C 76.8333,40.5 77.1667,40.5 77.5,40.5C 78.8333,45.5 78.8333,50.5 77.5,55.5C 77.1667,55.5 76.8333,55.5 76.5,55.5C 77.7694,50.4859 77.7694,45.4859 76.5,40.5 Z"/></g>
<g><path style="opacity:1" fill="#f09d91" d="M 144.5,42.5 C 145.924,44.5145 146.59,46.8478 146.5,49.5C 145.076,47.4855 144.41,45.1522 144.5,42.5 Z"/></g>
<g><path style="opacity:1" fill="#f28676" d="M 161.5,41.5 C 162.117,41.6107 162.617,41.944 163,42.5C 164.154,46.447 164.987,50.447 165.5,54.5C 163.721,50.406 162.388,46.0726 161.5,41.5 Z"/></g>
<g><path style="opacity:1" fill="#f15c47" d="M 144.5,42.5 C 144.41,45.1522 145.076,47.4855 146.5,49.5C 147.707,53.7869 148.707,58.1203 149.5,62.5C 144.833,62.5 140.167,62.5 135.5,62.5C 136.905,54.1217 139.405,46.1217 143,38.5C 143.791,39.745 144.291,41.0783 144.5,42.5 Z"/></g>
<g><path style="opacity:1" fill="#f38d7e" d="M 239.5,28.5 C 245.833,28.5 252.167,28.5 258.5,28.5C 258.5,29.5 258.5,30.5 258.5,31.5C 257.448,31.3505 256.448,31.5172 255.5,32C 247.046,39.7872 239.046,47.7872 231.5,56C 232.137,58.245 232.97,60.4117 234,62.5C 239.964,72.6293 246.131,82.6293 252.5,92.5C 251.596,93.209 251.263,94.209 251.5,95.5C 247.629,95.185 243.962,95.5184 240.5,96.5C 239.957,96.44 239.624,96.1067 239.5,95.5C 243.167,94.8333 246.833,94.1667 250.5,93.5C 243.672,82.091 237.005,70.591 230.5,59C 229.5,58.3333 228.5,58.3333 227.5,59C 221.658,65.0087 215.658,70.8421 209.5,76.5C 208.833,75.8333 208.167,75.1667 207.5,74.5C 208.492,74.6716 209.158,74.3382 209.5,73.5C 224.083,60.2537 238.417,46.587 252.5,32.5C 253.043,32.44 253.376,32.1067 253.5,31.5C 248.429,31.1276 243.762,30.1276 239.5,28.5 Z"/></g>
<g><path style="opacity:1" fill="#f1bcb5" d="M 121.5,51.5 C 121.31,54.855 120.31,57.855 118.5,60.5C 118.528,57.0836 119.528,54.0836 121.5,51.5 Z"/></g>
<g><path style="opacity:1" fill="#dcbdb8" d="M 65.5,56.5 C 65.3893,57.1174 65.056,57.6174 64.5,58C 58.3188,58.8192 52.3188,58.6525 46.5,57.5C 52.8918,57.7513 59.2252,57.418 65.5,56.5 Z"/></g>
<g><path style="opacity:1" fill="#e1bcb6" d="M 146.5,49.5 C 149.344,53.5106 150.677,58.1773 150.5,63.5C 145.305,63.8205 140.305,63.4872 135.5,62.5C 140.305,63.4872 145.305,63.8205 150.5,63.5C 150.677,58.1773 149.344,53.5106 146.5,49.5 Z"/></g>
<g><path style="opacity:1" fill="#f27b69" d="M 85.5,55.5 C 85.7388,60.4952 83.7388,64.1619 79.5,66.5C 82.2554,63.2233 84.2554,59.5566 85.5,55.5 Z"/></g>
<g><path style="opacity:1" fill="#f2aba1" d="M 243.5,63.5 C 244.906,63.9731 245.573,64.9731 245.5,66.5C 244.094,66.0269 243.427,65.0269 243.5,63.5 Z"/></g>
<g><path style="opacity:1" fill="#fac8bf" d="M 38.5,67.5 C 38.8333,67.5 39.1667,67.5 39.5,67.5C 39.5,76.5 39.5,85.5 39.5,94.5C 42.2469,94.1866 44.9135,94.52 47.5,95.5C 47.3764,96.1067 47.0431,96.44 46.5,96.5C 44.0521,95.5269 41.3854,95.1936 38.5,95.5C 38.5,86.1667 38.5,76.8333 38.5,67.5 Z"/></g>
<g><path style="opacity:1" fill="#eab7b1" d="M 126.5,67.5 C 137.116,69.477 148.116,70.1436 159.5,69.5C 148.346,70.4948 137.012,70.8281 125.5,70.5C 125.263,69.209 125.596,68.209 126.5,67.5 Z"/></g>
<g><path style="opacity:1" fill="#f77158" d="M 38.5,31.5 C 38.5,42.8333 38.5,54.1667 38.5,65.5C 38.5,66.1667 38.5,66.8333 38.5,67.5C 38.5,76.8333 38.5,86.1667 38.5,95.5C 41.3854,95.1936 44.0521,95.5269 46.5,96.5C 40.8236,96.6661 35.1569,96.4994 29.5,96C 32.095,95.7744 34.595,95.2744 37,94.5C 37.5,73.5026 37.6666,52.5026 37.5,31.5C 37.8333,28.8333 38.1667,28.8333 38.5,31.5 Z"/></g>
<g><path style="opacity:1" fill="#e2b0a9" d="M 155.5,79.5 C 146.983,79.1739 138.65,79.5073 130.5,80.5C 130.34,82.153 129.674,83.4863 128.5,84.5C 128.357,82.7376 128.691,81.0709 129.5,79.5C 138.325,78.1786 146.991,78.1786 155.5,79.5 Z"/></g>
<g><path style="opacity:1" fill="#ea897b" d="M 76.5,55.5 C 76.8333,55.5 77.1667,55.5 77.5,55.5C 76.9278,57.2554 76.0945,58.9221 75,60.5C 72.1423,62.3649 69.6423,64.5315 67.5,67C 73.0255,75.8757 78.1921,85.0424 83,94.5C 84.3988,95.2266 85.8988,95.7266 87.5,96C 81.5092,96.4995 75.5092,96.6662 69.5,96.5C 72.9619,95.5184 76.6286,95.185 80.5,95.5C 80.7373,94.209 80.404,93.209 79.5,92.5C 75.1749,84.518 70.8416,76.518 66.5,68.5C 57.5246,67.5018 48.5246,67.1685 39.5,67.5C 39.1667,67.5 38.8333,67.5 38.5,67.5C 38.5,66.8333 38.5,66.1667 38.5,65.5C 47.3494,65.8264 56.0161,65.493 64.5,64.5C 66.5932,63.9553 68.5932,63.122 70.5,62C 72.4167,59.591 74.4167,57.4243 76.5,55.5 Z"/></g>
<g><path style="opacity:1" fill="#e47c6d" d="M 130.5,80.5 C 138.65,79.5073 146.983,79.1739 155.5,79.5C 156.434,80.5676 156.768,81.901 156.5,83.5C 155.596,82.791 155.263,81.791 155.5,80.5C 147.167,80.5 138.833,80.5 130.5,80.5 Z"/></g>
<g><path style="opacity:1" fill="#f09386" d="M 63.5,79.5 C 64.9063,79.9731 65.573,80.9731 65.5,82.5C 64.0937,82.0269 63.427,81.0269 63.5,79.5 Z"/></g>
<g><path style="opacity:1" fill="#f2a89d" d="M 83.5,80.5 C 84.9063,80.9731 85.573,81.9731 85.5,83.5C 84.0937,83.0269 83.427,82.0269 83.5,80.5 Z"/></g>
<g><path style="opacity:1" fill="#f38373" d="M 113.5,76.5 C 112.671,79.8151 111.838,83.1484 111,86.5C 110.617,87.056 110.117,87.3893 109.5,87.5C 110.329,84.1849 111.162,80.8516 112,77.5C 112.383,76.944 112.883,76.6107 113.5,76.5 Z"/></g>
<g><path style="opacity:1" fill="#e9bcb5" d="M 238.5,87.5 C 237.081,88.4511 235.415,88.7845 233.5,88.5C 233.5,93.5 233.5,98.5 233.5,103.5C 244.167,103.5 254.833,103.5 265.5,103.5C 254.679,104.495 243.679,104.828 232.5,104.5C 232.5,98.8333 232.5,93.1667 232.5,87.5C 234.5,87.5 236.5,87.5 238.5,87.5 Z"/></g>
<g><path style="opacity:1" fill="#ebbbb4" d="M 46.5,87.5 C 49.1667,87.5 51.8333,87.5 54.5,87.5C 54.5,93.1667 54.5,98.8333 54.5,104.5C 43.3206,104.828 32.3206,104.495 21.5,103.5C 32.1667,103.5 42.8333,103.5 53.5,103.5C 53.5,98.5 53.5,93.5 53.5,88.5C 50.9407,88.8016 48.6074,88.4682 46.5,87.5 Z"/></g>
<g><path style="opacity:1" fill="#f18f80" d="M 298.5,28.5 C 296.365,30.369 293.698,31.0356 290.5,30.5C 290.17,47.6749 290.503,64.6749 291.5,81.5C 292.33,87.1725 295.33,91.3391 300.5,94C 309.673,95.1356 318.673,94.469 327.5,92C 328.665,90.0083 329.998,88.175 331.5,86.5C 332.302,85.0484 332.802,83.3817 333,81.5C 333.5,64.5033 333.667,47.5033 333.5,30.5C 330.302,31.0356 327.635,30.369 325.5,28.5C 331.167,28.5 336.833,28.5 342.5,28.5C 340.721,30.3435 338.388,31.0102 335.5,30.5C 335.5,47.5 335.5,64.5 335.5,81.5C 334.207,88.5913 330.207,93.4246 323.5,96C 315.5,96.6667 307.5,96.6667 299.5,96C 294.123,92.9569 290.623,88.4569 289,82.5C 288.5,65.5033 288.333,48.5033 288.5,31.5C 286.143,31.6633 283.81,31.4966 281.5,31C 281.043,30.586 280.709,30.086 280.5,29.5C 286.463,28.5041 292.463,28.1707 298.5,28.5 Z"/></g>
<g><path style="opacity:1" fill="#c7938b" d="M 305.5,37.5 C 305.833,37.5 306.167,37.5 306.5,37.5C 304.052,38.4731 301.385,38.8064 298.5,38.5C 298.5,52.8333 298.5,67.1667 298.5,81.5C 297.504,67.0095 297.171,52.3428 297.5,37.5C 300.167,37.5 302.833,37.5 305.5,37.5 Z"/></g>
<g><path style="opacity:1" fill="#eddbd6" d="M 325.5,28.5 C 327.635,30.369 330.302,31.0356 333.5,30.5C 333.667,47.5033 333.5,64.5033 333,81.5C 332.802,83.3817 332.302,85.0484 331.5,86.5C 332.418,68.1871 332.751,49.8537 332.5,31.5C 329.833,31.5 327.167,31.5 324.5,31.5C 324.263,30.209 324.596,29.209 325.5,28.5 Z"/></g>
<g><path style="opacity:1" fill="#d9b9b6" d="M 298.5,28.5 C 299.404,29.209 299.737,30.209 299.5,31.5C 296.833,31.5 294.167,31.5 291.5,31.5C 291.5,48.1667 291.5,64.8333 291.5,81.5C 290.503,64.6749 290.17,47.6749 290.5,30.5C 293.698,31.0356 296.365,30.369 298.5,28.5 Z"/></g>
<g><path style="opacity:1" fill="#edb7ae" d="M 79.5,92.5 C 80.404,93.209 80.7373,94.209 80.5,95.5C 76.6286,95.185 72.9619,95.5184 69.5,96.5C 68.9569,96.44 68.6236,96.1067 68.5,95.5C 72.589,95.1119 76.2557,94.1119 79.5,92.5 Z"/></g>
<g><path style="opacity:1" fill="#eeafa6" d="M 118.5,92.5 C 121.203,94.11 124.203,95.11 127.5,95.5C 124.167,95.5 120.833,95.5 117.5,95.5C 117.263,94.209 117.596,93.209 118.5,92.5 Z"/></g>
<g><path style="opacity:1" fill="#f0b5ac" d="M 169.5,94.5 C 171.924,94.1924 174.257,94.5258 176.5,95.5C 176.376,96.1067 176.043,96.44 175.5,96.5C 173.5,95.8333 171.5,95.1667 169.5,94.5 Z"/></g>
<g><path style="opacity:1" fill="#f57663" d="M 117.5,88.5 C 118.338,88.8417 118.672,89.5084 118.5,90.5C 118.5,91.1667 118.5,91.8333 118.5,92.5C 117.596,93.209 117.263,94.209 117.5,95.5C 120.833,95.5 124.167,95.5 127.5,95.5C 122.015,96.6517 116.349,96.8184 110.5,96C 115.248,96.4187 117.581,94.2521 117.5,89.5C 117.5,89.1667 117.5,88.8333 117.5,88.5 Z"/></g>
<g><path style="opacity:1" fill="#f37c6a" d="M 166.5,83.5 C 167.627,87.1351 168.627,90.8018 169.5,94.5C 171.5,95.1667 173.5,95.8333 175.5,96.5C 169.491,96.6662 163.491,96.4995 157.5,96C 160.817,95.5017 164.15,95.335 167.5,95.5C 167.3,92.3704 166.634,89.3704 165.5,86.5C 165.263,85.209 165.596,84.209 166.5,83.5 Z"/></g>
<g><path style="opacity:1" fill="#f67764" d="M 252.5,92.5 C 252.833,93.1667 253.167,93.8333 253.5,94.5C 254.609,95.29 255.942,95.79 257.5,96C 251.843,96.4994 246.176,96.6661 240.5,96.5C 243.962,95.5184 247.629,95.185 251.5,95.5C 251.263,94.209 251.596,93.209 252.5,92.5 Z"/></g>
<g><path style="opacity:1" fill="#e0c7c3" d="M 117.5,89.5 C 117.581,94.2521 115.248,96.4187 110.5,96C 116.349,96.8184 122.015,96.6517 127.5,95.5C 128.043,95.56 128.376,95.8933 128.5,96.5C 122.193,97.6639 115.859,97.8306 109.5,97C 108.167,96 108.167,95 109.5,94C 111.473,93.5045 113.473,93.3379 115.5,93.5C 115.229,91.6203 115.896,90.287 117.5,89.5 Z"/></g>
<g><path style="opacity:1" fill="#dbbbb6" d="M 253.5,94.5 C 255.167,94.5 256.833,94.5 258.5,94.5C 258.5,95.5 258.5,96.5 258.5,97.5C 252.31,97.8229 246.31,97.4896 240.5,96.5C 246.176,96.6661 251.843,96.4994 257.5,96C 255.942,95.79 254.609,95.29 253.5,94.5 Z"/></g>
<g><path style="opacity:1" fill="#f29385" d="M 332.5,99.5 C 332.027,100.906 331.027,101.573 329.5,101.5C 329.973,100.094 330.973,99.427 332.5,99.5 Z"/></g>
<g><path style="opacity:1" fill="#f2b1a8" d="M 62.5,87.5 C 62.5,92.8333 62.5,98.1667 62.5,103.5C 73.1667,103.5 83.8333,103.5 94.5,103.5C 84.0131,104.494 73.3464,104.828 62.5,104.5C 61.1667,98.8333 61.1667,93.1667 62.5,87.5 Z"/></g>
<g><path style="opacity:1" fill="#fab8af" d="M 128.5,84.5 C 128.5,85.5 128.5,86.5 128.5,87.5C 130.833,87.5 133.167,87.5 135.5,87.5C 135.5,93.1667 135.5,98.8333 135.5,104.5C 124.321,104.828 113.321,104.495 102.5,103.5C 113.167,103.5 123.833,103.5 134.5,103.5C 134.5,98.5 134.5,93.5 134.5,88.5C 132.167,88.5 129.833,88.5 127.5,88.5C 127.232,86.901 127.566,85.5676 128.5,84.5 Z"/></g>
<g><path style="opacity:1" fill="#f8b8af" d="M 175.5,87.5 C 178.167,87.5 180.833,87.5 183.5,87.5C 183.5,93.1667 183.5,98.8333 183.5,104.5C 172.321,104.828 161.321,104.495 150.5,103.5C 161.167,103.5 171.833,103.5 182.5,103.5C 182.5,98.5 182.5,93.5 182.5,88.5C 179.941,88.8016 177.607,88.4682 175.5,87.5 Z"/></g>
<g><path style="opacity:1" fill="#f9aa9e" d="M 297.5,102.5 C 305.779,103.44 314.112,103.773 322.5,103.5C 314.677,104.656 306.677,104.823 298.5,104C 297.944,103.617 297.611,103.117 297.5,102.5 Z"/></g>
<g><path style="opacity:1" fill="#f57b69" d="M 94.5,87.5 C 95.4896,93.31 95.8229,99.31 95.5,105.5C 84.3206,105.828 73.3206,105.495 62.5,104.5C 73.3464,104.828 84.0131,104.494 94.5,103.5C 94.5,98.1667 94.5,92.8333 94.5,87.5 Z"/></g>
<g><path style="opacity:1" fill="#f88776" d="M 190.5,87.5 C 190.179,93.0262 190.512,98.3595 191.5,103.5C 202.167,103.5 212.833,103.5 223.5,103.5C 223.5,98.1667 223.5,92.8333 223.5,87.5C 224.49,93.31 224.823,99.31 224.5,105.5C 213.162,105.667 201.828,105.5 190.5,105C 189.175,99.0677 189.175,93.2343 190.5,87.5 Z"/></g>
<g><path style="opacity:1" fill="#ddbcb7" d="M 208.5,94.5 C 211.167,94.5 213.833,94.5 216.5,94.5C 216.5,95.5 216.5,96.5 216.5,97.5C 210.31,97.8229 204.31,97.4896 198.5,96.5C 204.176,96.6661 209.843,96.4994 215.5,96C 212.964,95.8138 210.631,95.3138 208.5,94.5 Z"/></g>
<g><path style="opacity:1" fill="#f1c6c1" d="M 190.5,87.5 C 193.167,87.5 195.833,87.5 198.5,87.5C 196.393,88.4682 194.059,88.8016 191.5,88.5C 191.5,93.5 191.5,98.5 191.5,103.5C 190.512,98.3595 190.179,93.0262 190.5,87.5 Z"/></g>
<g><path style="opacity:1" fill="#f27a68" d="M 265.5,87.5 C 266.49,93.31 266.823,99.31 266.5,105.5C 254.988,105.828 243.654,105.495 232.5,104.5C 243.679,104.828 254.679,104.495 265.5,103.5C 265.5,98.1667 265.5,92.8333 265.5,87.5 Z"/></g>
</svg>
